<mxfile host="app.diagrams.net" modified="2024-01-25T22:00:23.610Z" agent="Mozilla/5.0 (Windows NT 10.0; Win64; x64) AppleWebKit/537.36 (KHTML, like Gecko) Chrome/120.0.0.0 Safari/537.36 Edg/120.0.0.0" version="23.0.2" etag="KdaFDULYaJ8lfjQaarSV" type="github">
  <diagram name="Page-1" id="bfAEV8Kw_Gw0WaG17fiB">
    <mxGraphModel>
      <root>
        <mxCell id="0" />
        <mxCell id="1" parent="0" />
      </root>
    </mxGraphModel>
  </diagram>
</mxfile>
